<svg class="css-ze2te4 css-qd6ojx" viewBox="0 0 100 100.01981060158711">
  <defs>
<linearGradient id="dragonFire" x1="0%" y1="0%" x2="100%" y2="100%">
  <stop offset="0%" stop-color="#fff700">
    <animate attributeName="stop-color"
             values="#fff700;#ffe000;#fff700"
             dur="1s" repeatCount="indefinite" />
  </stop>
  <stop offset="60%" stop-color="#ff9800">
    <animate attributeName="stop-color"
             values="#ff9800;#ff5a00;#ff9800"
             dur="1s" repeatCount="indefinite" />
  </stop>
  <stop offset="100%" stop-color="#d84315">
    <animate attributeName="stop-color"
             values="#d84315;#b71c1c;#d84315"
             dur="1s" repeatCount="indefinite" />
  </stop>
</linearGradient>

  </defs>
  <g transform="translate(-0.009955229709678406, -0.00011343458510143797) scale(0.19535172819926164)" class="css-1mun45u" fill="#111111">
    <g xmlns="http://www.w3.org/2000/svg">
      <path d="M416.749,151.314l-7.328-22.211c-0.969-2.929-3.156-5.296-6-6.492l-10.438-4.383l-38.312-47.664   c-0.672-0.82-1.438-1.539-2.312-2.133l-97.82-66.585c-4.219-2.867-9.875-2.352-13.508,1.242c-3.625,3.594-4.195,9.25-1.367,13.5   l48.18,72.21c-4.156,6.289-11.328,16.875-19.312,27.609c-17.547,23.546-26.445,30.835-29.914,33.046   c-9.672-8.734-17.812-23.742-23.672-43.687c-5.054-17.227-6.546-31.984-6.554-32.125c-0.008-0.016-0.008-0.023-0.008-0.023   c-0.016-0.133-0.031-0.25-0.055-0.367c-0.023-0.234-0.062-0.461-0.102-0.68c-0.008-0.031-0.008-0.062-0.016-0.094l-4.477-21.336   c-1.211-5.766-6.867-9.46-12.633-8.25c-5.766,1.211-9.453,6.867-8.25,12.633l1.734,8.266c-16.281,0.242-44.727,2.195-74.453,11.391   c-40.508,12.531-70.414,34.227-88.882,64.484c-38,62.266-24.867,156.883,39.031,281.209c1.766,3.422,5.234,5.641,9.086,5.781   c3.852,0.156,7.477-1.781,9.492-5.062l51.335-83.53l22.453,21.625c2.484,2.391,5.977,3.438,9.367,2.797   c3.398-0.641,6.266-2.875,7.719-6.016l55.179-119.609l15.188,4.523c29.992,34.461,4.953,99.226-21.695,147.959   c-30.828,56.391-71.007,104.578-71.476,105.141c-3.359,4-3.32,9.859,0.094,13.812c2.094,2.422,5.07,3.703,8.086,3.703   c1.914,0,3.836-0.516,5.562-1.562c1.758-1.078,43.391-26.734,87.695-67.234c26.164-23.922,47.758-48.047,64.195-71.718   c20.922-30.156,33.562-59.734,37.531-87.952c5.828-41.258-6.594-79.594-36.922-113.984l-0.984-11.812l15.172-18.445l5.719,11.445   c1.109,2.219,2.953,3.977,5.234,4.984l43.812,19.375c2.983,1.328,6.405,1.203,9.296-0.328l20.188-10.688   C416.218,161.65,418.39,156.252,416.749,151.314z M386.015,153.494l-35.562-15.734l-11.359-22.695   c-1.609-3.227-4.75-5.422-8.344-5.828c-3.578-0.406-7.125,1.031-9.422,3.82l-28.375,34.468c-1.766,2.148-2.625,4.898-2.391,7.672   l1.656,19.711c0.188,2.344,1.172,4.562,2.75,6.305c14.5,15.852,24.641,32.671,30.125,50c4.969,15.695,6.281,32.282,3.891,49.321   c-8.016,56.874-55.938,111.154-94.727,146.67c-10.133,9.266-20.188,17.781-29.648,25.375c10.585-15.641,21.921-33.656,32.375-52.75   c18.992-34.687,31.023-65.749,35.766-92.327c6.312-35.358-0.125-63.257-19.117-82.914c-1.273-1.32-2.867-2.289-4.625-2.812   l-26.859-8c-1.008-0.297-2.039-0.445-3.047-0.445c-4.07,0-7.906,2.343-9.687,6.203l-52.773,114.39l-21.195-20.422   c-2.328-2.25-5.539-3.312-8.742-2.906c-3.203,0.406-6.055,2.25-7.742,5l-48.234,78.483   C43.22,337.501,27.056,287.643,22.642,245.673c-4.016-38.101,1.648-70.031,16.82-94.89c15.679-25.687,41.585-44.273,76.984-55.226   c29.414-9.102,57.625-10.461,71.828-10.461c0.055,0,0.109,0,0.164,0c0.539,3.281,1.266,7.266,2.234,11.719   c-24.508,2.5-76.726,12.602-109.585,53.492c-27.398,34.086-34.711,81.187-21.734,139.992c1.102,4.984,5.516,8.374,10.406,8.374   c0.766,0,1.539-0.077,2.312-0.249c5.75-1.281,9.383-6.969,8.117-12.719c-11.5-52.118-5.633-93.133,17.438-121.93   c29.367-36.64,79.546-44.375,98.718-46.007c1.953,5.945,4.102,11.492,6.445,16.617c-9.438,2.336-22.062,6.578-34.727,14.227   c-23.125,13.961-50.687,42.078-50.679,96.718c0,5.891,4.773,10.672,10.664,10.672c5.891,0,10.664-4.781,10.664-10.672   c0-35.585,13.367-61.843,39.734-78.062c13.805-8.492,27.875-12.062,35.562-13.484c4.289,5.836,8.992,10.734,14.102,14.664   c2.703,2.086,5.984,3.188,9.484,3.188c7.148,0,14.758-4.453,24.656-14.445c6.273-6.328,13.609-15.055,21.797-25.922   c13.719-18.187,25.094-36.07,25.562-36.82c2.266-3.562,2.219-8.125-0.125-11.641l-21.688-32.516l51.234,34.883l39.016,48.523   c1.109,1.383,2.562,2.469,4.188,3.156l8.452,3.547l2.984,9.047L386.015,153.494z" fill="#111111"></path>
      <path d="M498.076,207.408c-4.781-3.43-11.453-2.336-14.875,2.453c-3.438,4.781-2.344,11.445,2.438,14.882   c4,2.867,5.156,5.5,4.938,6.883c-0.156,0.969-0.969,1.797-2.141,2.164c-2.391,0.758-5.625-0.664-8.641-3.789   c-23.108-23.96-56.093-55.148-56.437-55.46c-4.281-4.047-11.031-3.852-15.078,0.43c-4.031,4.281-3.844,11.031,0.438,15.078   c0.328,0.312,32.953,31.156,55.719,54.765c6.608,6.844,14.687,10.508,22.687,10.508c2.594,0,5.188-0.391,7.703-1.18   c8.922-2.797,15.375-10.133,16.812-19.133C513.279,224.83,508.342,214.767,498.076,207.408z" fill="url(#dragonFire)"/>
    </g>
  </g>
</svg>